<?xml version="1.0" encoding="iso-8859-1"?>
<!-- Generator: Adobe Illustrator 19.0.0, SVG Export Plug-In . SVG Version: 6.00 Build 0)  -->
<svg xmlns="http://www.w3.org/2000/svg" xmlns:xlink="http://www.w3.org/1999/xlink" version="1.1" id="Layer_1" x="0px" y="0px" viewBox="0 0 297 297" style="enable-background:new 0 0 297 297;" xml:space="preserve" width="512px" height="512px">
<g>
	<g>
		<g>
			<path d="M148.5,0C66.617,0,0,66.617,0,148.5S66.617,297,148.5,297S297,230.383,297,148.5S230.383,0,148.5,0z M148.5,276.796     c-70.743,0-128.296-57.553-128.296-128.296S77.757,20.204,148.5,20.204S276.796,77.757,276.796,148.5     S219.243,276.796,148.5,276.796z" fill="#FFFFFF"/>
			<path d="M102.035,80.309c1.802,0,3.628-0.482,5.277-1.495c5.985-3.676,10.469-5.278,10.633-5.335     c5.261-1.803,8.078-7.523,6.293-12.795c-1.788-5.285-7.52-8.121-12.807-6.33c-0.661,0.223-6.687,2.326-14.692,7.243     c-4.754,2.92-6.241,9.141-3.322,13.895C95.324,78.599,98.639,80.31,102.035,80.309z" fill="#FFFFFF"/>
			<path d="M89.377,78.819c-4.202-3.67-10.584-3.238-14.254,0.964c-6.838,7.83-12.144,16.689-15.771,26.332     c-1.964,5.222,0.676,11.047,5.898,13.011c1.171,0.441,2.373,0.65,3.554,0.65c4.086,0,7.934-2.498,9.457-6.549     c2.773-7.371,6.838-14.153,12.079-20.155C94.011,88.87,93.579,82.488,89.377,78.819z" fill="#FFFFFF"/>
			<path d="M73.812,134.937c0.316-5.57-3.944-10.342-9.514-10.658c-5.55-0.301-10.341,3.944-10.658,9.514     c-0.284,5.015-0.212,10.235,0.214,15.52c0.426,5.285,4.848,9.29,10.059,9.29c0.272,0,0.548-0.012,0.824-0.034     c5.561-0.449,9.705-5.321,9.257-10.882C73.64,143.322,73.579,139.032,73.812,134.937z" fill="#FFFFFF"/>
			<path d="M130.36,228.272c-6.763-1.738-10.969-3.73-11.132-3.808c-5.742-2.809-12.684-0.449-15.52,5.288     c-2.843,5.752-0.484,12.72,5.267,15.562c0.626,0.31,6.385,3.093,15.602,5.46c0.97,0.25,1.942,0.369,2.899,0.369     c5.176,0,9.896-3.484,11.243-8.729C140.317,236.2,136.574,229.868,130.36,228.272z" fill="#FFFFFF"/>
			<path d="M177.924,225.918c-5.693,2.225-11.684,3.724-17.808,4.459c-6.371,0.764-10.916,6.548-10.151,12.918     c0.707,5.901,5.722,10.235,11.52,10.235c0.462,0,0.928-0.028,1.398-0.084c8.071-0.968,15.976-2.948,23.496-5.886     c5.976-2.335,8.928-9.072,6.594-15.048C190.639,226.536,183.899,223.582,177.924,225.918z" fill="#FFFFFF"/>
			<path d="M228.267,199.393c-4.886-4.156-12.219-3.564-16.376,1.324c-2.819,3.315-5.779,6.406-8.8,9.186     c-4.721,4.345-5.025,11.694-0.68,16.415c2.291,2.489,5.415,3.75,8.55,3.75c2.813,0,5.633-1.015,7.865-3.07     c3.713-3.417,7.335-7.196,10.765-11.228C233.747,210.882,233.154,203.55,228.267,199.393z" fill="#FFFFFF"/>
			<path d="M106.067,188.071c4.801-6.955,9.915-12.355,15.632-16.51c4.513-3.279,5.514-9.597,2.234-14.11     c-3.279-4.515-9.598-5.514-14.11-2.234c-7.595,5.519-14.262,12.51-20.383,21.375c-3.17,4.591-2.017,10.883,2.574,14.053     c1.752,1.209,3.752,1.79,5.731,1.79C100.952,192.434,104.107,190.91,106.067,188.071z" fill="#FFFFFF"/>
			<path d="M160.401,159.528c2.794-0.328,5.682-0.667,8.499-1.073c5.522-0.796,9.352-5.918,8.556-11.441     c-0.797-5.522-5.906-9.358-11.441-8.556c-2.552,0.368-5.184,0.677-7.971,1.004c-6.7,0.787-13.627,1.6-20.937,3.384     c-5.42,1.322-8.743,6.787-7.42,12.208c1.126,4.616,5.256,7.71,9.806,7.71c0.792,0,1.598-0.094,2.402-0.29     C148.003,160.984,154.307,160.245,160.401,159.528z" fill="#FFFFFF"/>
			<path d="M199.034,91.694c0.721,5.036,5.042,8.67,9.987,8.67c0.477,0,0.96-0.034,1.446-0.104     c5.523-0.791,9.358-5.909,8.566-11.433c-2.547-17.775-11.156-30.192-11.521-30.712c-3.207-4.564-9.505-5.666-14.074-2.458     c-4.565,3.207-5.666,9.508-2.458,14.074C191.042,69.818,197.195,78.862,199.034,91.694z" fill="#FFFFFF"/>
			<path d="M207.593,137.275c3.879-5.689,6.874-11.724,8.901-17.935c1.73-5.304-1.165-11.007-6.47-12.738     c-5.304-1.728-11.006,1.165-12.738,6.47c-1.434,4.396-3.584,8.71-6.389,12.824c-1.589,2.332-3.332,4.229-5.329,5.799     c-4.386,3.448-5.146,9.799-1.698,14.185c1.993,2.535,4.955,3.858,7.948,3.858c2.184,0,4.386-0.705,6.237-2.161     C201.652,144.751,204.861,141.284,207.593,137.275z" fill="#FFFFFF"/>
			<path d="M177.207,204.061c1.313,1.313,3.141,2.071,5.001,2.071c1.859,0,3.677-0.758,5-2.071c1.314-1.324,2.072-3.142,2.072-5.001     s-0.758-3.688-2.072-5.001c-1.313-1.313-3.141-2.071-5-2.071c-1.869,0-3.688,0.758-5.001,2.071     c-1.313,1.313-2.071,3.132-2.071,5.001C175.136,200.919,175.894,202.737,177.207,204.061z" fill="#FFFFFF"/>
			<path d="M210.907,160.349c-1.313,1.314-2.071,3.142-2.071,5.001c0,1.869,0.758,3.688,2.071,5.001     c1.324,1.323,3.142,2.071,5.001,2.071s3.688-0.748,5.001-2.071c1.323-1.313,2.071-3.142,2.071-5.001     c0-1.859-0.748-3.687-2.071-5.001c-1.313-1.313-3.131-2.071-5.001-2.071C214.049,158.278,212.231,159.036,210.907,160.349z" fill="#FFFFFF"/>
			<path d="M254.619,143.499c-1.324-1.313-3.142-2.071-5.001-2.071s-3.687,0.758-5.001,2.071c-1.313,1.313-2.071,3.142-2.071,5.001     s0.758,3.687,2.071,5.001c1.314,1.313,3.142,2.071,5.001,2.071s3.677-0.758,5.001-2.071c1.313-1.314,2.071-3.142,2.071-5.001     S255.932,144.812,254.619,143.499z" fill="#FFFFFF"/>
			<path d="M232.768,107.718c-1.869,0-3.688,0.758-5.001,2.081c-1.323,1.314-2.071,3.132-2.071,4.991     c0,1.868,0.748,3.688,2.071,5.001c1.313,1.323,3.131,2.071,5.001,2.071c1.859,0,3.677-0.748,5.001-2.071     c1.313-1.313,2.071-3.132,2.071-5.001c0-1.859-0.758-3.677-2.071-4.991C236.445,108.476,234.627,107.718,232.768,107.718z" fill="#FFFFFF"/>
			<path d="M148.497,88.16c1.868,0,3.687-0.758,5.001-2.071c1.323-1.323,2.071-3.142,2.071-5.001s-0.748-3.677-2.071-5.001     c-1.314-1.313-3.132-2.071-5.001-2.071c-1.859,0-3.678,0.758-5.001,2.071c-1.313,1.314-2.071,3.142-2.071,5.001     s0.758,3.678,2.071,5.001C144.819,87.402,146.638,88.16,148.497,88.16z" fill="#FFFFFF"/>
			<path d="M165.357,54.46c1.859,0,3.678-0.758,4.991-2.082c1.323-1.313,2.071-3.131,2.071-5.001c0-1.859-0.748-3.687-2.071-5     c-1.313-1.314-3.132-2.072-4.991-2.072c-1.868,0-3.687,0.758-5.001,2.072c-1.323,1.323-2.071,3.141-2.071,5     c0,1.869,0.748,3.688,2.071,5.001C161.67,53.703,163.488,54.46,165.357,54.46z" fill="#FFFFFF"/>
			<path d="M109.796,109.789c-1.313,1.324-2.071,3.142-2.071,5.001c0,1.868,0.758,3.688,2.071,5.001     c1.313,1.323,3.142,2.081,5.001,2.081s3.677-0.758,5.001-2.081c1.313-1.313,2.071-3.132,2.071-5.001     c0-1.859-0.758-3.677-2.071-5.001c-1.324-1.313-3.142-2.061-5.001-2.061C112.938,107.728,111.109,108.476,109.796,109.789z" fill="#FFFFFF"/>
			<path d="M165.357,121.871c1.859,0,3.678-0.758,4.991-2.081c1.323-1.313,2.071-3.132,2.071-4.991c0-1.868-0.748-3.687-2.071-5.011     c-1.313-1.313-3.132-2.071-4.991-2.071c-1.868,0-3.687,0.758-5.001,2.071c-1.323,1.324-2.071,3.142-2.071,5.011     c0,1.859,0.748,3.678,2.071,4.991C161.67,121.113,163.488,121.871,165.357,121.871z" fill="#FFFFFF"/>
			<path d="M64.236,191.989c-1.869,0-3.688,0.758-5.001,2.071s-2.071,3.142-2.071,5.001s0.758,3.677,2.071,5.001     c1.313,1.313,3.142,2.071,5.001,2.071s3.677-0.758,5.001-2.071c1.313-1.324,2.071-3.142,2.071-5.001s-0.758-3.688-2.071-5.001     C67.922,192.747,66.094,191.989,64.236,191.989z" fill="#FFFFFF"/>
			<path d="M155.568,182.2c0-1.859-0.748-3.677-2.071-4.99c-1.314-1.324-3.132-2.082-5.001-2.082c-1.859,0-3.678,0.758-5.001,2.082     c-1.313,1.313-2.071,3.131-2.071,4.99c0,1.869,0.758,3.688,2.071,5.001c1.323,1.324,3.142,2.082,5.001,2.082     c1.868,0,3.687-0.758,5.001-2.082C154.821,185.887,155.568,184.059,155.568,182.2z" fill="#FFFFFF"/>
		</g>
	</g>
</g>
<g>
</g>
<g>
</g>
<g>
</g>
<g>
</g>
<g>
</g>
<g>
</g>
<g>
</g>
<g>
</g>
<g>
</g>
<g>
</g>
<g>
</g>
<g>
</g>
<g>
</g>
<g>
</g>
<g>
</g>
</svg>
